<svg id="blå" xmlns="http://www.w3.org/2000/svg" viewBox="0 0 960 1080"><defs><style>.cls-1{fill:#a8dff4;}.cls-2{fill:#fff;}.cls-3{fill:#e5e5e5;}</style></defs><title>himmel2</title><rect class="cls-1" width="960" height="1080"/><path class="cls-2" d="M737.56,122.35a9,9,0,0,0-7.6-8.91,13.78,13.78,0,0,0-22.85-5.65,11.75,11.75,0,0,0-2.31-.23,12.09,12.09,0,0,0-3.82.63,11.89,11.89,0,0,0-15.64,10.75,6.28,6.28,0,0,0,1.28,12.43h.22a5.23,5.23,0,0,0,8.34,3.12,8,8,0,0,0,11.2.42,6,6,0,0,0,2.67.63,6.06,6.06,0,0,0,2.75-.66,7.54,7.54,0,0,0,11.11.33,5.07,5.07,0,0,0,1.51.23,5.17,5.17,0,0,0,5.06-4.11A9,9,0,0,0,737.56,122.35Z" transform="translate(-2.18)"/><path class="cls-2" d="M753.7,377a13.52,13.52,0,0,0,19.86,11.94,16.87,16.87,0,0,0,31.74.61,14.69,14.69,0,0,0,19.48-10.09h.45a16,16,0,1,0,0-32,16.69,16.69,0,0,0-2.47.19,18.83,18.83,0,0,0-30-3.62,13.46,13.46,0,0,0-25.36,3.85,13.61,13.61,0,0,0-9,18.89A13.46,13.46,0,0,0,753.7,377Z" transform="translate(-2.18)"/><path class="cls-2" d="M241.06,68a9.24,9.24,0,0,0-13.55-8.15,11.51,11.51,0,0,0-21.66-.41,9.9,9.9,0,0,0-3.58-.66,10,10,0,0,0-9.71,7.54h-.31a10.91,10.91,0,0,0,0,21.82,11.68,11.68,0,0,0,1.69-.13,12.83,12.83,0,0,0,20.47,2.47,9.19,9.19,0,0,0,17.31-2.62,9.29,9.29,0,0,0,6.16-12.89A9.2,9.2,0,0,0,241.06,68Z" transform="translate(-2.18)"/><path class="cls-2" d="M485,277a18.9,18.9,0,0,0-3.71.36,25.39,25.39,0,0,0-47,11.35,14.13,14.13,0,0,0-1.46-.08,13.68,13.68,0,1,0,0,27.35H485a19.49,19.49,0,0,0,0-39Z" transform="translate(-2.18)"/><path class="cls-2" d="M608.31,506.89a12.84,12.84,0,0,0,.86-4.61,13.09,13.09,0,0,0-13.09-13.09,12.74,12.74,0,0,0-2.49.24,17.05,17.05,0,0,0-31.46,6.65,13.16,13.16,0,0,0-4.26,1.49,9.2,9.2,0,0,0-5.83,6.8,13.06,13.06,0,0,0,12.24,17.7,13.65,13.65,0,0,0,2.49-.24,17.05,17.05,0,0,0,31.46-6.66,13,13,0,0,0,4.26-1.49A9.18,9.18,0,0,0,608.31,506.89Z" transform="translate(-2.18)"/><path class="cls-2" d="M260.83,944.54a23.35,23.35,0,0,0-21.49-14.23c-.43,0-.85,0-1.27,0a27.32,27.32,0,0,0-46.28,15A16.6,16.6,0,0,0,198.7,977h9.52a18.66,18.66,0,0,0,23.7,2.91,19.53,19.53,0,0,0,2.77.2A18.51,18.51,0,0,0,245,977h10.93a16.6,16.6,0,0,0,4.89-32.46Z" transform="translate(-2.18)"/><path class="cls-2" d="M461.55,717.53a14.32,14.32,0,0,0-7.81-17.06,17.65,17.65,0,0,0-24.28-18,17.64,17.64,0,0,0-31.4,5,17.87,17.87,0,0,0-.55,2.55,11.5,11.5,0,0,0-3.17,22.53h0c0,.08-.05.15-.07.23a18.59,18.59,0,0,0,28.2,20.64,15.48,15.48,0,0,0,23.64-5.83A14.33,14.33,0,0,0,461.55,717.53Z" transform="translate(-2.18)"/><path class="cls-2" d="M837.43,990.67c.26-3.22-2.4-6.1-6.09-6.84-.55-3.68-4.16-6.72-8.76-7.09a10.73,10.73,0,0,0-6.06,1.25,10.72,10.72,0,0,0-5.78-2.21c-5.22-.42-9.73,2.75-10.08,7.08a6.53,6.53,0,0,0,0,1.17c-2.59.43-4.6,2.23-4.78,4.54-.23,2.83,2.35,5.35,5.76,5.62h0s0,.07,0,.11c-.37,4.56,3.79,8.61,9.28,9.06a10.82,10.82,0,0,0,7.91-2.38,9.78,9.78,0,0,0,3,.74c4.2.33,7.88-2,8.7-5.29C834.2,996.21,837.17,993.82,837.43,990.67Z" transform="translate(-2.18)"/><path class="cls-2" d="M668,774.12c-9.47,1.58-16.41,7.29-15.5,12.76a6.13,6.13,0,0,0,.66,1.9c-2.77,2-4.32,4.52-3.91,7a6,6,0,0,0,2.84,3.92c-6.11,3-9.86,7.59-9.12,12,.86,5.16,7.45,8.54,15.78,8.67a8.73,8.73,0,0,0-.1,3.3c1.31,7.83,13.37,12.34,26.95,10.08s23.51-10.46,22.2-18.29c0-.12-.05-.24-.07-.36,6.33-2.17,10.52-6.43,9.83-10.54-.39-2.35-2.33-4.23-5.17-5.41a7.16,7.16,0,0,0,1-4.79c-.5-3-3-5.29-6.77-6.65a5.82,5.82,0,0,0,0-1.56c-.51-3-3.47-5.23-7.63-6.23a4.3,4.3,0,0,0,.1-1.85c-.66-4-6.76-6.25-13.62-5.1a20.41,20.41,0,0,0-5.52,1.73A25.6,25.6,0,0,0,668,774.12Z" transform="translate(-2.18)"/><path class="cls-2" d="M526.88,1080a16.56,16.56,0,0,0-11-20.46,23.35,23.35,0,0,0-21.49-14.23c-.43,0-.85,0-1.27,0a27.32,27.32,0,0,0-46.28,15,16.55,16.55,0,0,0-9,19.69Z" transform="translate(-2.18)"/><polyline class="cls-3" points="438.86 135.34 429.71 120.58 432.96 120.43 458.58 137.89"/><polyline class="cls-2" points="438.64 140.5 429.78 158.41 433.08 158.69 458.58 137.92"/><path class="cls-2" d="M424.34,142.67h53.33a9.31,9.31,0,0,0,6.44-2.59,3.44,3.44,0,0,0,0-5,9.28,9.28,0,0,0-6.44-2.59h-54.3a.84.84,0,0,1-.67-.33L416,123.36a.84.84,0,0,0-.67-.33h-2.26a.82.82,0,0,0-.82,1l1.46,7.48S415.79,142.2,424.34,142.67Z" transform="translate(-2.18)"/><path class="cls-2" d="M481.64,127" transform="translate(-2.18)"/><polyline class="cls-3" points="601.07 920.08 606.45 911.39 604.54 911.3 589.46 921.58"/><polyline class="cls-2" points="601.2 923.11 606.41 933.66 604.47 933.82 589.46 921.59"/><path class="cls-2" d="M613.08,924.39H581.69a5.48,5.48,0,0,1-3.79-1.53,2,2,0,0,1-.63-1.46,2,2,0,0,1,.63-1.47,5.51,5.51,0,0,1,3.79-1.53h32a.49.49,0,0,0,.39-.19L618,913a.49.49,0,0,1,.39-.19h1.34a.49.49,0,0,1,.48.59l-.86,4.4S618.11,924.12,613.08,924.39Z" transform="translate(-2.18)"/><path class="cls-2" d="M579.35,915.14" transform="translate(-2.18)"/></svg>