<svg id="blå" xmlns="http://www.w3.org/2000/svg" viewBox="0 0 960 1080"><defs><style>.cls-1{fill:#a8dff4;}.cls-2{fill:#fff;}.cls-3{fill:#e5e5e5;}</style></defs><title>himmel</title><rect class="cls-1" width="960" height="1080"/><path class="cls-2" d="M735.47,122.35a9,9,0,0,0-7.59-8.91A13.78,13.78,0,0,0,705,107.79a11.57,11.57,0,0,0-2.3-.23,12,12,0,0,0-3.82.63,11.89,11.89,0,0,0-15.64,10.75,6.28,6.28,0,0,0,1.28,12.43h.21a5.24,5.24,0,0,0,8.35,3.12,8,8,0,0,0,11.2.42,6,6,0,0,0,5.41,0,7.55,7.55,0,0,0,11.12.33,5,5,0,0,0,1.5.23,5.17,5.17,0,0,0,5.06-4.11A9,9,0,0,0,735.47,122.35Z" transform="translate(-0.09)"/><path class="cls-2" d="M751.61,377a13.52,13.52,0,0,0,13.53,13.52,13.37,13.37,0,0,0,6.33-1.58,16.87,16.87,0,0,0,31.74.61,14.7,14.7,0,0,0,19.49-10.09h.45a16,16,0,0,0,0-32,16.83,16.83,0,0,0-2.48.19,18.82,18.82,0,0,0-30-3.62,13.47,13.47,0,0,0-25.37,3.85,13.63,13.63,0,0,0-9,18.89A13.5,13.5,0,0,0,751.61,377Z" transform="translate(-0.09)"/><path class="cls-2" d="M239,68a9.24,9.24,0,0,0-13.55-8.15,11.5,11.5,0,0,0-21.65-.41,10,10,0,0,0-13.3,6.88h-.3a10.91,10.91,0,1,0,0,21.82,11.79,11.79,0,0,0,1.69-.13,12.83,12.83,0,0,0,20.47,2.47,9.18,9.18,0,0,0,17.3-2.62,9.3,9.3,0,0,0,7-9,9.14,9.14,0,0,0-.85-3.88A9.2,9.2,0,0,0,239,68Z" transform="translate(-0.09)"/><path class="cls-2" d="M482.94,277a19,19,0,0,0-3.72.36,25.39,25.39,0,0,0-47,11.35,14.17,14.17,0,0,0-1.47-.08,13.68,13.68,0,0,0,0,27.35h52.19a19.49,19.49,0,1,0,0-39Z" transform="translate(-0.09)"/><path class="cls-2" d="M606.23,506.89A13.06,13.06,0,0,0,594,489.19a12.82,12.82,0,0,0-2.49.24A17.05,17.05,0,0,0,560,496.08a13.25,13.25,0,0,0-4.26,1.49,9.19,9.19,0,0,0-5.82,6.8,12.8,12.8,0,0,0-.86,4.61,13.09,13.09,0,0,0,13.09,13.09,13.56,13.56,0,0,0,2.49-.24,17.05,17.05,0,0,0,31.46-6.66,12.93,12.93,0,0,0,4.26-1.49A9.19,9.19,0,0,0,606.23,506.89Z" transform="translate(-0.09)"/><path class="cls-2" d="M258.74,944.54a23.34,23.34,0,0,0-21.49-14.23c-.43,0-.85,0-1.27,0a27.32,27.32,0,0,0-46.27,15A16.6,16.6,0,0,0,196.62,977h9.52a18.66,18.66,0,0,0,23.7,2.91,19.42,19.42,0,0,0,2.77.2A18.56,18.56,0,0,0,242.93,977h10.92a16.6,16.6,0,0,0,4.89-32.46Z" transform="translate(-0.09)"/><path class="cls-2" d="M960.07,556.5v70.87h-47a19.65,19.65,0,0,1,0-39.3,18.7,18.7,0,0,1,3.28.3,35.88,35.88,0,0,1,43.73-31.87Z" transform="translate(-0.09)"/><path class="cls-2" d="M459.46,717.53a14.31,14.31,0,0,0-7.81-17.06,17.65,17.65,0,0,0-24.28-18,17.63,17.63,0,0,0-31.39,5,16.6,16.6,0,0,0-.55,2.55,11.5,11.5,0,0,0-3.17,22.53h0c0,.08-.05.15-.07.23a18.59,18.59,0,0,0,28.21,20.64A15.48,15.48,0,0,0,444,727.68,14.31,14.31,0,0,0,459.46,717.53Z" transform="translate(-0.09)"/><path class="cls-2" d="M835.34,990.67c.26-3.22-2.39-6.1-6.09-6.84-.55-3.68-4.16-6.72-8.76-7.09a10.73,10.73,0,0,0-6.06,1.25,10.68,10.68,0,0,0-5.78-2.21c-5.21-.42-9.73,2.75-10.08,7.08a7.62,7.62,0,0,0,0,1.17c-2.58.43-4.59,2.23-4.78,4.54-.23,2.83,2.35,5.35,5.76,5.62h0a.41.41,0,0,1,0,.11c-.37,4.56,3.79,8.61,9.29,9.06a10.81,10.81,0,0,0,7.9-2.38,9.84,9.84,0,0,0,3,.74c4.2.33,7.87-2,8.69-5.29C832.12,996.21,835.09,993.82,835.34,990.67Z" transform="translate(-0.09)"/><path class="cls-2" d="M666,774.12c-9.48,1.58-16.42,7.29-15.5,12.76a5.89,5.89,0,0,0,.66,1.9c-2.78,2-4.33,4.52-3.92,7A6,6,0,0,0,650,799.7c-6.11,3-9.86,7.59-9.11,12,.86,5.16,7.45,8.54,15.78,8.67a8.53,8.53,0,0,0-.1,3.3c1.3,7.83,13.37,12.34,26.94,10.08s23.52-10.46,22.21-18.29c0-.12,0-.24-.08-.36,6.33-2.17,10.52-6.43,9.84-10.54-.4-2.35-2.34-4.23-5.17-5.41a7.21,7.21,0,0,0,1-4.79c-.49-3-3.05-5.29-6.76-6.65a5.44,5.44,0,0,0,0-1.56c-.5-3-3.47-5.23-7.63-6.23a4.47,4.47,0,0,0,.11-1.85c-.66-4-6.76-6.25-13.63-5.1a20.64,20.64,0,0,0-5.52,1.73A25.56,25.56,0,0,0,666,774.12Z" transform="translate(-0.09)"/><path class="cls-2" d="M524.79,1080a16.56,16.56,0,0,0-11-20.46,23.34,23.34,0,0,0-21.49-14.23c-.43,0-.85,0-1.27,0a27.32,27.32,0,0,0-46.27,15,16.55,16.55,0,0,0-9,19.69Z" transform="translate(-0.09)"/><polyline class="cls-3" points="438.86 135.34 429.71 120.58 432.96 120.43 458.58 137.89"/><polyline class="cls-2" points="438.64 140.5 429.78 158.41 433.08 158.69 458.58 137.92"/><path class="cls-2" d="M422.25,142.67h53.33a9.35,9.35,0,0,0,6.45-2.59,3.47,3.47,0,0,0,0-5,9.33,9.33,0,0,0-6.45-2.59h-54.3a.81.81,0,0,1-.66-.33L414,123.36a.81.81,0,0,0-.66-.33H411a.83.83,0,0,0-.82,1l1.46,7.48S413.7,142.2,422.25,142.67Z" transform="translate(-0.09)"/><path class="cls-2" d="M479.55,127" transform="translate(-0.09)"/><polyline class="cls-3" points="601.07 920.08 606.45 911.39 604.54 911.3 589.46 921.58"/><polyline class="cls-2" points="601.2 923.11 606.41 933.66 604.47 933.82 589.46 921.59"/><path class="cls-2" d="M611,924.39H579.61a5.48,5.48,0,0,1-3.8-1.53,2,2,0,0,1-.63-1.46,2,2,0,0,1,.63-1.47,5.51,5.51,0,0,1,3.8-1.53h31.95a.48.48,0,0,0,.39-.19l3.93-5.19a.48.48,0,0,1,.39-.19h1.33a.49.49,0,0,1,.48.59l-.86,4.4S616,924.12,611,924.39Z" transform="translate(-0.09)"/><path class="cls-2" d="M577.27,915.14" transform="translate(-0.09)"/></svg>