<svg id="Layer_5" data-name="Layer 5" xmlns="http://www.w3.org/2000/svg" viewBox="0 0 960 1080"><defs><style>.cls-1{fill:#3c3c3f;}.cls-2{fill:#bdbdbd;}</style></defs><title>nat</title><rect class="cls-1" width="960" height="1080"/><polygon class="cls-2" points="104.09 98.75 93.99 96.4 86.33 103.39 85.45 93.06 76.44 87.93 85.99 83.89 88.08 73.74 94.86 81.58 105.17 80.43 99.81 89.31 104.09 98.75"/><polygon class="cls-2" points="447.2 1003.47 442.69 1002.42 439.27 1005.54 438.88 1000.93 434.86 998.64 439.12 996.84 440.05 992.31 443.08 995.8 447.68 995.29 445.29 999.25 447.2 1003.47"/><polygon class="cls-2" points="496.2 587.47 491.69 586.42 488.27 589.54 487.88 584.93 483.86 582.64 488.12 580.84 489.05 576.31 492.08 579.8 496.68 579.29 494.29 583.25 496.2 587.47"/><polygon class="cls-2" points="456.2 332.47 451.69 331.42 448.27 334.54 447.88 329.93 443.86 327.64 448.12 325.84 449.05 321.31 452.08 324.81 456.68 324.29 454.29 328.25 456.2 332.47"/><polygon class="cls-2" points="833.2 107.47 828.69 106.42 825.27 109.54 824.88 104.93 820.86 102.64 825.12 100.84 826.05 96.31 829.08 99.81 833.68 99.29 831.29 103.25 833.2 107.47"/><polygon class="cls-2" points="293.2 866.47 288.69 865.42 285.27 868.54 284.88 863.93 280.86 861.64 285.12 859.84 286.05 855.31 289.08 858.8 293.68 858.29 291.29 862.25 293.2 866.47"/><polygon class="cls-2" points="833.2 829.47 828.69 828.42 825.27 831.54 824.88 826.93 820.86 824.64 825.12 822.84 826.05 818.31 829.08 821.8 833.68 821.29 831.29 825.25 833.2 829.47"/><polygon class="cls-2" points="574.67 803.73 568.16 802.21 563.21 806.72 562.65 800.05 556.83 796.74 563 794.14 564.35 787.59 568.72 792.65 575.37 791.91 571.91 797.63 574.67 803.73"/><polygon class="cls-2" points="723.67 1023.73 717.16 1022.21 712.21 1026.72 711.65 1020.05 705.83 1016.74 712 1014.14 713.35 1007.59 717.72 1012.65 724.37 1011.91 720.91 1017.63 723.67 1023.73"/><polygon class="cls-2" points="279.67 546.73 273.16 545.21 268.21 549.72 267.65 543.05 261.83 539.74 268 537.14 269.35 530.59 273.72 535.65 280.37 534.91 276.91 540.63 279.67 546.73"/><polygon class="cls-2" points="139.67 380.73 133.16 379.21 128.21 383.72 127.65 377.05 121.83 373.74 128 371.14 129.34 364.59 133.72 369.65 140.37 368.91 136.91 374.63 139.67 380.73"/><polygon class="cls-2" points="112.67 792.73 106.16 791.21 101.21 795.72 100.65 789.05 94.83 785.74 101 783.14 102.34 776.59 106.72 781.65 113.37 780.91 109.91 786.63 112.67 792.73"/><path class="cls-2" d="M126.8,1002.3l-12.65-3.69c-12.4,6.26-20.16,4.76-20.16,4.76l-9.67,9s7.62.72,21.77-2.78S126.8,1002.3,126.8,1002.3Z" transform="translate(-0.09)"/><path class="cls-2" d="M104.77,1010.83a94.59,94.59,0,0,1-15.15,2.43l10.26,1.65s2.63,1.41,7.31.31,6.4-3.55,6.4-3.55l8.84-6.34a117.5,117.5,0,0,1-16.33,5.18C105.65,1010.63,105.21,1010.73,104.77,1010.83Z" transform="translate(-0.09)"/><path class="cls-2" d="M112.43,998.21c-1.31-3.48-5.62-5.43-10-4.38s-7.48,4.8-7,8.54a27.52,27.52,0,0,0,7.79-.82A46.57,46.57,0,0,0,112.43,998.21Z" transform="translate(-0.09)"/><rect class="cls-2" x="93.93" y="1016.35" width="7.32" height="1.14" transform="translate(-806.75 541.55) rotate(-56.79)"/><path class="cls-2" d="M96.76,1019.71a1.11,1.11,0,0,1-.94,1.25,1,1,0,1,1,.94-1.25Z" transform="translate(-0.09)"/><rect class="cls-2" x="116.42" y="1008.73" width="1.14" height="7.32" transform="translate(-816.5 603.25) rotate(-59.74)"/><path class="cls-2" d="M119,1014.51a1.22,1.22,0,1,0,.93-1.25A1.11,1.11,0,0,0,119,1014.51Z" transform="translate(-0.09)"/><polygon class="cls-2" points="534.68 81.92 529.67 79.05 524.46 81.56 525.64 75.9 521.64 71.73 527.39 71.1 530.13 66.01 532.5 71.28 538.19 72.31 533.91 76.19 534.68 81.92"/><polygon class="cls-2" points="344.05 185.96 339.04 183.09 333.83 185.6 335.01 179.94 331.02 175.76 336.76 175.13 339.5 170.05 341.87 175.32 347.56 176.35 343.28 180.23 344.05 185.96"/><polygon class="cls-2" points="695.64 236.34 690.62 233.47 685.41 235.98 686.59 230.32 682.6 226.14 688.34 225.51 691.08 220.43 693.45 225.69 699.14 226.72 694.86 230.61 695.64 236.34"/><polygon class="cls-2" points="585.99 261.88 582.16 257.55 576.42 258.25 579.36 253.27 576.93 248.03 582.57 249.28 586.8 245.35 587.35 251.1 592.4 253.91 587.1 256.21 585.99 261.88"/></svg>