<svg xmlns="http://www.w3.org/2000/svg" viewBox="0 0 564.15 663.37"><defs><style>.cls-1{fill:#ffd400;}.cls-2{fill:#95999a;}.cls-3{fill:#676b6c;}</style></defs><title>sm</title><g id="Layer_1" data-name="Layer 1"><path id="sol" class="cls-1" d="M740.85,578.52l62.94,67.17-92-6.08A255.18,255.18,0,0,0,740.85,578.52ZM574.21,831.32l13.3-91.09a254.79,254.79,0,0,1-65.78,15.53ZM569.69,168l-51.5,76.34a254.77,254.77,0,0,1,66,14.52Zm170,250.56,62-68-91.84,7.31A256.35,256.35,0,0,1,739.73,418.51ZM692.08,334.2l32.16-96.5-87.57,47.52A259.6,259.6,0,0,1,692.08,334.2ZM846.59,508.46,751.05,468a258.4,258.4,0,0,1,2.07,32.13,255.29,255.29,0,0,1-3.86,44Zm-220.15,213L711.19,773l-27.31-97.61A258.88,258.88,0,0,1,626.44,721.48ZM705.58,456q-.83-4-1.83-7.94A214.45,214.45,0,0,0,592.57,309.14l-.35-.17a212.47,212.47,0,0,0-76.32-21.81c-4.93-.44-9.89-.75-14.9-.87V714c1.39,0,2.78-.09,4.16-.15a212.82,212.82,0,0,0,78.44-18.42c3.79-1.7,7.54-3.5,11.22-5.43a214.9,214.9,0,0,0,66.5-53.73c2.95-3.61,5.77-7.35,8.52-11.14a212.64,212.64,0,0,0,31.27-63.3,203.54,203.54,0,0,0,5-20.35,214.11,214.11,0,0,0-.56-85.54Z" transform="translate(-282.44 -167.95)"/></g><g id="måne"><path class="cls-2" d="M492.5,286.29V714c-5-.12-10-.43-14.9-.87a212.47,212.47,0,0,1-76.32-21.81l-.35-.17A214.36,214.36,0,0,1,289.75,552.29q-1-4-1.83-7.94a214.11,214.11,0,0,1-.56-85.54,203.54,203.54,0,0,1,5-20.35,212.64,212.64,0,0,1,31.27-63.3c2.75-3.79,5.57-7.53,8.52-11.14,1.17-1.42,2.37-2.83,3.58-4.22a215.32,215.32,0,0,1,62.92-49.51c3.68-1.93,7.43-3.73,11.22-5.43a212.82,212.82,0,0,1,78.44-18.42C489.72,286.38,491.11,286.33,492.5,286.29Z" transform="translate(-282.44 -167.95)"/><rect class="cls-3" x="337.33" y="296.62" width="2.42" height="44.7" transform="translate(-408.63 131.67) rotate(-40.91)"/><rect class="cls-3" x="327.85" y="287.24" width="33.41" height="18.94" transform="translate(-392.59 130.17) rotate(-40.91)"/><path class="cls-3" d="M378.72,322.08a215,215,0,0,0-43,37.72c.63-3.13,3.53-13.63,15.45-24.35l.91-.81.92-.78C364.64,324.17,374.91,322.4,378.72,322.08Z" transform="translate(-282.44 -167.95)"/><path class="cls-3" d="M295,431s-9.95,10.67-12,23a40,40,0,0,0,2,21s5-3,6.71-13.25c1.41-8.42,3.56-10.37,5.36-18.72S295,431,295,431Z" transform="translate(-282.44 -167.95)"/><path class="cls-3" d="M333.61,638s12.73,19.87,30,33c16.79,12.78,30.87,16.66,30.87,16.66s-3-7.88-17.33-18.81c-11.78-9-14-13-25.58-22.28S333.61,638,333.61,638Z" transform="translate(-282.44 -167.95)"/><path class="cls-3" d="M392,457c-13.36,26.58-27.91,29-29,42-1,11.66,10.59,11.09,21,36,6.78,16.21,6.53,27.58,13,29,5.6,1.23,11.55-6,14-9,11.88-14.46-.08-29.34,9-43,7.71-11.6,19-6.12,27-17,11.45-15.49,6.57-50.88-14-58-12.63-4.37-29,2.66-37,13A36.86,36.86,0,0,0,392,457Z" transform="translate(-282.44 -167.95)"/></g></svg>