<svg xmlns="http://www.w3.org/2000/svg" viewBox="0 0 1919 1080"><defs><style>.cls-1{fill:#3c3c3f;}.cls-2{fill:#a8dff4;}.cls-3{fill:#bdbdbd;}.cls-4{fill:#fff;}.cls-5{fill:#e5e5e5;}</style></defs><title>sm_bg</title><g id="Layer_1" data-name="Layer 1"><rect class="cls-1" width="960" height="1080"/><rect class="cls-2" x="959" width="960" height="1080"/></g><g id="Layer_2" data-name="Layer 2"><polygon class="cls-3" points="104.09 98.75 93.99 96.4 86.33 103.39 85.45 93.06 76.44 87.93 85.99 83.89 88.08 73.74 94.86 81.58 105.17 80.43 99.81 89.31 104.09 98.75"/><polygon class="cls-3" points="447.2 1003.47 442.69 1002.42 439.27 1005.54 438.88 1000.93 434.86 998.64 439.12 996.84 440.05 992.31 443.08 995.8 447.68 995.29 445.29 999.25 447.2 1003.47"/><polygon class="cls-3" points="496.2 587.47 491.69 586.42 488.27 589.54 487.88 584.93 483.86 582.64 488.12 580.84 489.05 576.31 492.08 579.8 496.68 579.29 494.29 583.25 496.2 587.47"/><polygon class="cls-3" points="456.2 332.47 451.69 331.42 448.27 334.54 447.88 329.93 443.86 327.64 448.12 325.84 449.05 321.31 452.08 324.81 456.68 324.29 454.29 328.25 456.2 332.47"/><polygon class="cls-3" points="833.2 107.47 828.69 106.42 825.27 109.54 824.88 104.93 820.86 102.64 825.12 100.84 826.05 96.31 829.08 99.81 833.68 99.29 831.29 103.25 833.2 107.47"/><polygon class="cls-3" points="293.2 866.47 288.69 865.42 285.27 868.54 284.88 863.93 280.86 861.64 285.12 859.84 286.05 855.31 289.08 858.8 293.68 858.29 291.29 862.25 293.2 866.47"/><polygon class="cls-3" points="833.2 829.47 828.69 828.42 825.27 831.54 824.88 826.93 820.86 824.64 825.12 822.84 826.05 818.31 829.08 821.8 833.68 821.29 831.29 825.25 833.2 829.47"/><polygon class="cls-3" points="574.67 803.73 568.16 802.21 563.21 806.72 562.65 800.05 556.83 796.74 563 794.14 564.35 787.59 568.72 792.65 575.37 791.91 571.91 797.63 574.67 803.73"/><polygon class="cls-3" points="723.67 1023.73 717.16 1022.21 712.21 1026.72 711.65 1020.05 705.83 1016.74 712 1014.14 713.35 1007.59 717.72 1012.65 724.37 1011.91 720.91 1017.63 723.67 1023.73"/><polygon class="cls-3" points="279.67 546.73 273.16 545.21 268.21 549.72 267.65 543.05 261.83 539.74 268 537.14 269.35 530.59 273.72 535.65 280.37 534.91 276.91 540.63 279.67 546.73"/><polygon class="cls-3" points="139.67 380.73 133.16 379.21 128.21 383.72 127.65 377.05 121.83 373.74 128 371.14 129.34 364.59 133.72 369.65 140.37 368.91 136.91 374.63 139.67 380.73"/><polygon class="cls-3" points="112.67 792.73 106.16 791.21 101.21 795.72 100.65 789.05 94.83 785.74 101 783.14 102.34 776.59 106.72 781.65 113.37 780.91 109.91 786.63 112.67 792.73"/><path class="cls-3" d="M127.71,1002.3l-12.65-3.69c-12.4,6.26-20.16,4.76-20.16,4.76l-9.68,9s7.63.72,21.77-2.78S127.71,1002.3,127.71,1002.3Z" transform="translate(-1)"/><path class="cls-3" d="M105.68,1010.83a94.59,94.59,0,0,1-15.15,2.43l10.26,1.65s2.63,1.41,7.31.31,6.39-3.55,6.39-3.55l8.85-6.34a117.74,117.74,0,0,1-16.34,5.18C106.56,1010.63,106.11,1010.73,105.68,1010.83Z" transform="translate(-1)"/><path class="cls-3" d="M113.33,998.21c-1.3-3.48-5.62-5.43-10-4.38s-7.48,4.8-7,8.54a27.43,27.43,0,0,0,7.78-.82A46.57,46.57,0,0,0,113.33,998.21Z" transform="translate(-1)"/><rect class="cls-3" x="94.84" y="1016.35" width="7.32" height="1.14" transform="translate(-807.25 542.31) rotate(-56.79)"/><path class="cls-3" d="M97.67,1019.71a1.22,1.22,0,0,1-2.34.55,1.11,1.11,0,0,1,.94-1.25A1.12,1.12,0,0,1,97.67,1019.71Z" transform="translate(-1)"/><rect class="cls-3" x="117.33" y="1008.73" width="1.14" height="7.32" transform="translate(-816.95 604.04) rotate(-59.74)"/><path class="cls-3" d="M119.89,1014.51a1.12,1.12,0,0,0,1.4.7,1,1,0,1,0-1.4-.7Z" transform="translate(-1)"/><polygon class="cls-3" points="534.68 81.92 529.67 79.05 524.46 81.56 525.64 75.9 521.64 71.73 527.39 71.1 530.13 66.01 532.5 71.28 538.19 72.31 533.91 76.19 534.68 81.92"/><polygon class="cls-3" points="344.05 185.96 339.04 183.09 333.83 185.6 335.01 179.94 331.02 175.76 336.76 175.13 339.5 170.05 341.87 175.32 347.56 176.35 343.28 180.23 344.05 185.96"/><polygon class="cls-3" points="695.64 236.34 690.62 233.47 685.41 235.98 686.59 230.32 682.6 226.14 688.34 225.51 691.08 220.43 693.45 225.69 699.14 226.72 694.86 230.61 695.64 236.34"/><polygon class="cls-3" points="585.99 261.88 582.16 257.55 576.42 258.25 579.36 253.27 576.93 248.03 582.57 249.28 586.8 245.35 587.35 251.1 592.4 253.91 587.1 256.21 585.99 261.88"/><path class="cls-4" d="M1695.38,122.35a9,9,0,0,0-7.6-8.91,13.78,13.78,0,0,0-22.85-5.65,11.73,11.73,0,0,0-2.3-.23,11.93,11.93,0,0,1-7.59,0,11.91,11.91,0,0,0-11.88,11.36,6.28,6.28,0,0,0,1.28,12.43h.22a5.24,5.24,0,0,0,8.35,3.12,8,8,0,0,0,11.19.42,6,6,0,0,0,5.42,0,7.54,7.54,0,0,0,11.11.33,5.07,5.07,0,0,0,1.51.23,5.17,5.17,0,0,0,5.06-4.11A9,9,0,0,0,1695.38,122.35Z" transform="translate(-1)"/><path class="cls-4" d="M1711.52,377a13.52,13.52,0,0,0,19.86,11.94,16.87,16.87,0,0,0,31.74.61,14.69,14.69,0,0,0,19.48-10.09h.45a16,16,0,1,0,0-32,16.69,16.69,0,0,0-2.47.19,18.83,18.83,0,0,0-30-3.62,13.46,13.46,0,0,0-25.36,3.85,13.61,13.61,0,0,0-9,18.89A13.5,13.5,0,0,0,1711.52,377Z" transform="translate(-1)"/><path class="cls-4" d="M1198.88,68a9.24,9.24,0,0,0-13.55-8.15,11.51,11.51,0,0,0-21.66-.41,9.9,9.9,0,0,0-3.58-.66,10,10,0,0,0-9.71,7.54h-.31a10.91,10.91,0,1,0,0,21.82,11.68,11.68,0,0,0,1.69-.13,12.83,12.83,0,0,0,20.47,2.47,9.19,9.19,0,0,0,17.31-2.62,9.29,9.29,0,0,0,6.16-12.89A9.2,9.2,0,0,0,1198.88,68Z" transform="translate(-1)"/><path class="cls-4" d="M1442.84,277a18.9,18.9,0,0,0-3.71.36,25.39,25.39,0,0,0-47,11.35,14,14,0,0,0-1.46-.08,13.68,13.68,0,0,0,0,27.35h52.18a19.49,19.49,0,0,0,0-39Z" transform="translate(-1)"/><path class="cls-4" d="M1566.14,506.89a13.06,13.06,0,0,0-12.24-17.7,12.74,12.74,0,0,0-2.49.24,17.05,17.05,0,0,0-31.46,6.65,13.16,13.16,0,0,0-4.26,1.49,9.2,9.2,0,0,0-5.83,6.8,13.06,13.06,0,0,0,12.24,17.7,13.65,13.65,0,0,0,2.49-.24,17.05,17.05,0,0,0,31.46-6.66,13,13,0,0,0,4.26-1.49A9.21,9.21,0,0,0,1566.14,506.89Z" transform="translate(-1)"/><path class="cls-4" d="M1218.65,944.54a23.35,23.35,0,0,0-21.49-14.23c-.43,0-.85,0-1.27,0a27.32,27.32,0,0,0-46.28,15,16.6,16.6,0,0,0,6.91,31.69H1166a18.66,18.66,0,0,0,23.7,2.91,19.53,19.53,0,0,0,2.77.2,18.51,18.51,0,0,0,10.32-3.11h10.93a16.6,16.6,0,0,0,4.89-32.46Z" transform="translate(-1)"/><path class="cls-4" d="M1920,556.5v70.87h-47a19.65,19.65,0,0,1,0-39.3,18.52,18.52,0,0,1,3.28.3A35.89,35.89,0,0,1,1912,555.6,36.33,36.33,0,0,1,1920,556.5Z" transform="translate(-1)"/><path class="cls-4" d="M1419.37,717.53a14.32,14.32,0,0,0-7.81-17.06,17.65,17.65,0,0,0-24.28-18,17.64,17.64,0,0,0-31.4,5,17.87,17.87,0,0,0-.55,2.55,11.5,11.5,0,0,0-3.17,22.53h0c0,.08-.05.15-.07.23a18.59,18.59,0,0,0,28.2,20.64,15.49,15.49,0,0,0,23.65-5.83A14.32,14.32,0,0,0,1419.37,717.53Z" transform="translate(-1)"/><path class="cls-4" d="M1795.25,990.67c.26-3.22-2.4-6.1-6.09-6.84-.55-3.68-4.16-6.72-8.76-7.09a11,11,0,0,1-11.84-1c-5.22-.42-9.73,2.75-10.08,7.08a6.53,6.53,0,0,0,0,1.17c-2.59.43-4.59,2.23-4.78,4.54-.23,2.83,2.35,5.35,5.76,5.62h0s0,.07,0,.11c-.37,4.56,3.79,8.61,9.28,9.06a10.82,10.82,0,0,0,7.91-2.38,9.85,9.85,0,0,0,3,.74c4.2.33,7.88-2,8.7-5.29C1792,996.21,1795,993.82,1795.25,990.67Z" transform="translate(-1)"/><path class="cls-4" d="M1625.86,774.12c-9.47,1.58-16.41,7.29-15.5,12.76a6.13,6.13,0,0,0,.66,1.9c-2.77,2-4.32,4.52-3.91,7a6,6,0,0,0,2.84,3.92c-6.11,3-9.86,7.59-9.12,12,.86,5.16,7.45,8.54,15.78,8.67a8.73,8.73,0,0,0-.1,3.3c1.31,7.83,13.37,12.34,27,10.08s23.51-10.46,22.21-18.29c0-.12-.05-.24-.08-.36,6.33-2.17,10.52-6.43,9.83-10.54-.39-2.35-2.33-4.23-5.17-5.41a7.16,7.16,0,0,0,1-4.79c-.5-3-3-5.29-6.77-6.65a5.82,5.82,0,0,0,0-1.56c-.5-3-3.47-5.23-7.63-6.23a4.3,4.3,0,0,0,.1-1.85c-.66-4-6.76-6.25-13.62-5.1a20.41,20.41,0,0,0-5.52,1.73A25.6,25.6,0,0,0,1625.86,774.12Z" transform="translate(-1)"/><path class="cls-4" d="M1484.7,1080a16.56,16.56,0,0,0-11-20.46,23.35,23.35,0,0,0-21.49-14.23c-.43,0-.85,0-1.27,0a27.32,27.32,0,0,0-46.28,15,16.55,16.55,0,0,0-9,19.69Z" transform="translate(-1)"/><polyline class="cls-5" points="1397.86 135.34 1388.71 120.58 1391.96 120.43 1417.58 137.89"/><polyline class="cls-4" points="1397.64 140.5 1388.78 158.41 1392.08 158.69 1417.58 137.92"/><path class="cls-4" d="M1382.16,142.67h53.33a9.31,9.31,0,0,0,6.44-2.59,3.44,3.44,0,0,0,0-5,9.28,9.28,0,0,0-6.44-2.59h-54.3a.84.84,0,0,1-.67-.33l-6.66-8.81a.84.84,0,0,0-.67-.33h-2.26a.83.83,0,0,0-.82,1l1.46,7.48S1373.61,142.2,1382.16,142.67Z" transform="translate(-1)"/><path class="cls-4" d="M1439.46,127" transform="translate(-1)"/><polyline class="cls-5" points="1560.07 920.08 1565.45 911.39 1563.54 911.3 1548.46 921.58"/><polyline class="cls-4" points="1560.19 923.11 1565.41 933.66 1563.47 933.82 1548.46 921.59"/><path class="cls-4" d="M1570.9,924.39h-31.39a5.48,5.48,0,0,1-3.79-1.53,2,2,0,0,1-.63-1.46,2,2,0,0,1,.63-1.47,5.51,5.51,0,0,1,3.79-1.53h32a.49.49,0,0,0,.39-.19l3.92-5.19a.49.49,0,0,1,.39-.19h1.34a.49.49,0,0,1,.48.59l-.86,4.4S1575.93,924.12,1570.9,924.39Z" transform="translate(-1)"/><path class="cls-4" d="M1537.17,915.14" transform="translate(-1)"/></g></svg>